<?xml version="1.0" encoding="UTF-8"?>
<!-- Created with Inkscape (http://www.inkscape.org/) -->
<svg width="512" height="512" version="1.1" viewBox="0 0 512 512" xml:space="preserve" xmlns="http://www.w3.org/2000/svg"><path d="m98.591 272.42 20.169-12.101c-15.156 32.022-11.668 70.985 3.227 102.46h0.80674l1.6135-11.294c10.132 9.2848 17.052 22.966 26.695 33.065 18.549 19.424 42.166 35.046 66.081 47.002 8.9812 4.4901 22.835 13.253 33.076 13.217 6.9403-0.0245 15.502-5.6393 21.782-8.3494 21.745-9.3834 42.348-21.926 60.506-37.138 13.636-11.424 32.973-27.523 39.53-44.569-6.2206 0.12839-18.455-0.82462-23.828 2.4426-3.442 2.0932-5.9023 6.6956-8.5785 9.6585-7.6161 8.432-18.915 21.87-29.712 26.169-5.4101 2.1537-14.708-7.2395-18.555-10.408-14.77-12.165-29.066-39.396-11.291-55.142 16.158-14.314 35.924 1.8604 51.628 7.989 31.084 12.13 76.442 0.13764 83.094-37.181-24.458-9.6375-47.012-28.981-56.12-54.052-3.164-8.7092-1.0584-19.328-4.4545-27.429-2.7774-6.6248-8.5582-12.391-13.182-17.748-1.9983-2.3154-5.4079-4.8544-5.8265-8.0674-1.3257-10.176 5.0312-24.218 6.0325-34.69 1.9479-20.372-0.502-40.231-0.66981-60.506-23.166 6.6735-38.515 26.313-57.279 39.53l-8.0674-65.346c-8.38 2.6748-15.929 10.511-22.589 16.07-19.676 16.425-36.713 36.348-48.962 58.957-4.3784 8.0813-5.9604 20.12-11.417 27.208-2.9551 3.8384-9.6349 4.5895-13.841 6.5081-9.9664 4.5461-19.413 9.9285-28.236 16.427-26.626 19.612-41.595 46.479-51.631 77.323m162.96-169.42c3.994 16.73 4.321 35.323 5.5756 52.438 0.3918 5.3449-1.037 16.276 1.7075 20.792 3.0716 5.0534 17.899 7.0617 23.373 9.4027 13.871 5.9321 25.927 15.441 36.272 26.278 9.717 10.179 7.8916 19.606 11.233 32.27 2.9092 11.027 8.5618 21.451 15.216 30.656 7.2986 10.097 23.621 18.37 25.687 30.656 0.51234 3.0459 2.2376 8.0859 0.31124 10.892-5.2807 7.6913-24.521 6.6176-32.247 5.082-13.516-2.6863-23.49-10.416-35.497-16.571-15.027-7.703-30.906-13.521-47.598-16.279-20.972-3.4657-43.333-1.5146-62.926 7.0839-8.4025 3.6874-15.291 9.6333-23.396 13.582-8.2004 3.9953-16.23 0.0196-24.202 6.8679-3.9984 3.4347-7.1198 7.6748-8.6968 12.739-1.6133 5.1806-0.53447 9.8574-5.0185 13.715-2.6085-3.9546-7.2341-9.6742-7.5831-14.521-0.6443-8.9468 11.73-22.209 17.336-28.236 19.697-21.174 50.097-34.093 78.988-34.69v-0.80675c-6.5521-3.2631-12.487-12.822-19.362-14.233-6.0256-1.2371-15.302 3.069-20.975 4.9606-17.497 5.8333-34.146 16.219-47.526 28.865-5.4551 5.1558-9.4802 12.17-15.4 16.711 4.3304-18.189 6.1612-45.017 22.664-57.562 15.5-11.782 38.636-9.203 56.397-13.431l-1.6135-16.942c-21.359 0-41.59 6.0651-61.312 13.715 8.9212-13.65 26.478-23.933 41.144-30.314 5.7618-2.5067 18.699-4.172 22.706-8.8237 4.9305-5.7233 5.7764-19.04 9.008-26.208 9.2272-20.468 25.905-46.624 45.733-58.085m62.926 22.589c0 18.704-1.8679 36.538-5.6472 54.858l-33.076-16.135c5.4336-14.335 23.943-34.006 38.724-38.724m-225.08 105.68h0.80675c3.2163-8.8357 13.271-16.135 15.103-25.009 1.8519-8.9666-0.32858-19.102 0.29691-28.236 0.21813-3.1851 0.16035-8.3625 2.6979-10.637 3.3642-3.0155 9.2268-4.3282 13.365-5.9821 11.646-4.6547 24.058-8.5336 36.303-11.274 5.1402-1.1502 13.824-0.97623 18.041-4.3269 4.4962-3.5726 9.2901-14.005 11.002-19.412-25.115 4.6795-49.252 9.8787-73.413 18.441-5.9887 2.1222-20.643 5.4519-24.18 10.92-3.3178 5.1292-1.5694 15.612-1.639 21.465-0.21508 18.079-0.66456 36.002 1.6166 54.052m258.16-96.002-0.80674 18.555c9.8462 2.0377 19.804 5.5127 29.043 9.4549 3.1904 1.3614 7.812 2.3654 10.001 5.2476 3.7786 4.9756 2.1003 18.712 2.1003 24.828 0 24.31-3.9766 48.059-8.8742 71.8l16.942 11.294c3.885-30.084 10.49-58.976 10.488-89.548-4.9e-4 -7.4595-0.50948-15.184-1.3831-22.589-0.30883-2.6175 0.42716-6.251-1.0595-8.5567-2.4619-3.8182-11.203-5.7888-15.306-7.3204-13.294-4.9631-26.963-11.256-41.144-13.166m-94.389 83.094v0.80674c7.5678 3.261 17.208 8.4901 22.063 15.34 3.9814 5.6172 3.7713 12.406 9.4755 17.187 10.565 8.8566 27.295 11.554 39.455 18.297-1.6114-5.5939-5.07-10.258-7.8184-15.328-3.7046-6.8335-6.0115-14.172-11.233-20.096-13.312-15.101-33.327-16.207-51.941-16.207m4.0337 88.742v0.80674c-32.68 4.8265-53.817 40.757-49.784 71.8 1.9145 14.739 9.3847 25.254 14.288 38.724-10.169-5.225-26.868-10.677-34.235-19.627-2.5262-3.0687-3.0015-8.1008-4.0232-11.836-4.9378-18.052 1.4312-32.489 2.6892-50.018 0.41647-5.8032-1.6643-10.674-3.1541-16.135 21.098-12.703 49.621-22.042 74.22-13.715m-98.422 19.643c11.102-2.1258 15.517 14.557 4.0331 17.149-11.58 2.613-15.801-14.895-4.0331-17.149m87.128 5.3664c-6.3194 30.633 9.6396 55.514 34.69 72.607v1.6135c-7.5235 3.9628-14.826 8.0413-22.589 11.541-2.6898 1.2126-6.6176 3.8908-9.6778 2.7887-6.0836-2.1908-11.773-12.964-14.709-18.363-11.327-20.828-14.778-58.727 12.286-70.186m-82.288 29.043v18.555c-6.1208-4.3116-19.64-14.461-16.942-22.589z" fill="#940000"/></svg>
