<?xml version="1.0" encoding="UTF-8"?>
<!-- Created with Inkscape (http://www.inkscape.org/) -->
<svg width="210mm" height="297mm" version="1.1" viewBox="0 0 210 297" xml:space="preserve" xmlns="http://www.w3.org/2000/svg"><path d="m74.896 234.09c-1.7157-0.57549-3.9398-1.7192-4.9423-2.5414l-1.8228-1.4951 41.142-0.23746c28.847-0.16645 41.414-0.46841 42.052-1.0102 0.72983-0.6193 0.81519-2.8661 0.43001-11.317-0.55918-12.269 0.0128-14.443 4.6364-17.588 2.6587-1.809 2.9653-1.8512 13.451-1.8512 8.802 0 10.846-0.18749 11.372-1.0436 0.87734-1.4269 0.8799-94.639 3e-3 -97.011-0.36286-0.98139-1.6569-2.4095-2.8756-3.1736-2.1252-1.3324-3.4254-1.3893-31.778-1.3918-16.259-1e-3 -29.677 0.23219-29.818 0.51921-0.53118 1.0837 1.334 22.181 2.1374 24.177 0.46208 1.148 0.81875 2.1655 0.79259 2.2612-0.0261 0.0957 0.5859 0.82533 1.3602 1.6215 2.3768 2.444 5.3968 9.7023 4.641 11.154-0.94583 1.8173-8.644 7.2439-11.726 8.2657-5.3118 1.7613-14.695-0.48936-28.755-6.8975-7.5384-3.4357-15.565-5.8143-19.343-5.732-3.0241 0.0657-9.6967 2.233-12.014 3.902-2.1003 1.5127-2.7306 1.3438-1.8151-0.48624 2.36-4.7177 8.5717-8.175 14.688-8.175 4.4057 0 13.328 2.703 21.791 6.6017 7.8327 3.6083 13.544 5.5057 18.816 6.2513 2.9009 0.41024 4.0485 0.21089 7.0414-1.2239 1.9666-0.94271 4.2636-2.3945 5.1045-3.2262 1.7174-1.6986 1.7155-1.7054-2.319-8.1906-3.4371-5.5249-3.7307-6.7236-4.235-17.288-0.44377-9.2958-0.57151-9.9591-2.6304-13.659-1.1902-2.1391-2.6108-4.2705-3.1569-4.7365-0.85977-0.73371-0.86529-1.1009-0.0412-2.7397 2.197-4.3686 3.9325-13.659 4.2666-22.841 0.23272-6.3916 0.10971-9.2187-0.4008-9.2187-0.88044 0-10.841 9.4784-14.663 13.954-1.4891 1.7434-3.9254 4.9054-5.414 7.0267l-2.7065 3.8568-23.682-0.34064-2.7065-3.4628c-1.4886-1.9046-4.3377-5.6161-6.3314-8.2479-4.4062-5.8159-10.955-12.985-11.423-12.504-0.18771 0.19296-0.92002 2.4782-1.6275 5.0783-0.90324 3.3198-1.2894 7.0107-1.2968 12.396-0.01279 8.7905 0.8778 13.96 3.1702 18.417 0.88422 1.7189 1.6077 3.5577 1.6077 4.0861 0 0.52844-1.3136 2.8791-2.919 5.2236-10.063 14.696-18.837 39.068-19.003 52.788-0.05831 4.821 0.09539 5.6172 1.1163 5.7797 0.65127 0.10361 1.1841-0.0689 1.1841-0.38368 0-0.69375 5.4508-3.4789 6.8107-3.48 0.79394-6.5e-4 0.93089 1.2965 0.7529 7.1314-0.41597 13.638 3.4838 29.894 9.6392 40.18 2.44 4.0775 3.3556 8.3463 1.901 8.8635-1.4852 0.52811-4.4368-3.5266-8.0194-11.016-5.1172-10.698-7.1075-18.436-8.0813-31.417-0.26911-3.5871-0.75551-6.0878-1.1841-6.0878-0.40009 0-2.3347 1.7063-4.2991 3.7917-2.417 2.5659-3.7364 3.5218-4.0814 2.9569-1.0316-1.6894-1.0015-14.849 0.05191-22.613 1.905-14.04 10.326-36.056 18.242-47.694l2.7696-4.0716-1.9066-5.6689c-2.3437-6.9687-3.0451-16.594-1.7928-24.602 0.94235-6.0258 3.0623-14.998 3.9131-16.562 1.3443-2.47 12.06 7.919 21.573 20.915 2.0879 2.8524 3.9876 5.2076 4.2216 5.2337 0.234 0.026 4.543 0.10858 9.5756 0.18323l9.1501 0.13574 3.3674-4.3959c3.3267-4.3428 12.643-14.089 17.238-18.034 2.7854-2.391 6.9804-5.0711 7.9377-5.0711 0.3704 0 1.0625 1.885 1.538 4.1889 1.3237 6.4137 0.50826 20.915-1.6532 29.4-0.95308 3.7416-1.7329 7.2638-1.7329 7.8272 0 0.88754 4.2941 1.0243 32.161 1.0243 25.481 0 32.616 0.19512 34.349 0.93998 2.9477 1.2664 6.3469 5.3847 7.2309 8.7605 0.48894 1.867 0.6625 18.262 0.53596 50.625-0.17645 45.142-0.25882 48.002-1.4475 50.299-0.69316 1.3393-8.0007 9.2524-16.239 17.585-11.664 11.797-15.533 15.304-17.483 15.846-1.5408 0.42846-16.12 0.6636-37.891 0.61114-29.498-0.071-35.905-0.25928-38.506-1.1316zm92.116-20.182c5.1988-5.2449 9.4523-9.9668 9.4523-10.493 0-0.77281-1.6157-0.91236-8.4053-0.72603-7.8069 0.21431-8.5295 0.35079-10.149 1.9174-1.6912 1.6357-1.744 1.9463-1.744 10.262 0 5.4206 0.25645 8.5756 0.69705 8.5756 0.38336 0 4.9506-4.2913 10.149-9.5363zm-112.6 9.5038-2.111-1.9382-0.21277-16.582c-0.29256-22.802 0.02046-24.376 5.0044-25.205l2.6512-0.4409 0.35935-7.6705c0.31757-6.7787 0.58013-8.0579 2.2583-11.002 4.5734-8.0245 15.411-11.022 23.099-6.3883 6.228 3.753 9.129 9.7435 9.129 18.851v5.7711l2.199 0.44367c6.4008 1.2914 6.7537 2.6207 6.4735 24.384-0.23195 18.019-0.33636 18.557-4.0369 20.805-1.674 1.0168-4.3628 1.1415-22.303 1.0339l-20.4-0.12228zm42.477-3.4463c0.79919-0.84134 1.0442-4.3159 1.2643-17.926 0.19129-11.837 0.0486-17.074-0.47809-17.523-1.2379-1.0564-38.711-1.1004-39.946-0.0468-0.87026 0.74265-1.0298 3.494-1.0298 17.754 0 17.966 3.33e-4 17.968 3.3831 18.64 0.93035 0.18486 9.3693 0.29315 18.753 0.24061 14.187-0.0794 17.229-0.27135 18.053-1.1392zm-20.737-6.3175c-0.90127-0.5398-1.1841-1.6259-1.1841-4.5476 0-3.0224-0.35961-4.3233-1.6915-6.1189-3.5576-4.7961-1.1494-10.846 4.3174-10.846 1.5484 0 3.1437 0.46599 3.7582 1.0979 2.9182 3.0007 2.9182 5.9528-5e-5 9.5189-1.3257 1.6201-1.6476 2.7914-1.6476 5.9954 0 2.1901-0.36539 4.3577-0.81194 4.8168-0.96953 0.99696-1.2032 1.0041-2.7404 0.0834zm13.594-41.92c-0.21252-6.6216-0.38046-7.3896-2.1307-9.7469-4.7548-6.4042-13.403-7.1186-19.309-1.595-2.8509 2.6665-3.488 4.8373-3.488 11.886v6.6442h25.158zm24.117 44.725c-0.95255-3.086 0.46763-3.4946 11.432-3.289 9.2084 0.17277 10.236 0.31455 10.446 1.4425 0.53591 2.8704-0.86353 3.2714-11.418 3.2714-9.5049 0-10.044-0.0734-10.461-1.4249zm0.51775-12.951c-1.007-0.41785-1.1341-3.4484-0.17032-4.0609 1.117-0.70983 23.787-1.1621 27.066-0.53996 2.6361 0.50023 3.0448 0.80868 3.0448 2.2979 0 1.6856-0.13554 1.7289-6.7662 2.1602-8.2636 0.53749-22.019 0.62221-23.174 0.14278zm5.9381-15.755c-3.2689-1.1548-4.0558-3.2232-4.0674-10.691-0.0102-5.8588 0.13374-6.5578 1.7417-8.5229 1.3375-1.6345 2.3079-2.1406 4.1042-2.1406 5.1085 0 6.9999 3.1053 6.9999 11.492 0 6.2644-1.0949 8.9091-4.1401 10.001-1.1833 0.42415-2.1821 0.75351-2.2196 0.73192-0.0376-0.021-1.1259-0.41295-2.4187-0.86969zm4.6949-4.6113c0.38523-0.74018 0.70045-3.422 0.70045-5.9596 0-2.5376-0.31522-5.2194-0.70045-5.9596-0.91355-1.7552-4.4676-1.8464-4.9953-0.12832-0.80134 2.6092-0.62872 11.22 0.24678 12.305 1.218 1.5091 3.905 1.3634 4.7486-0.25744zm12.654 4.3607c-0.24806-0.25508-0.45109-3.5425-0.45109-7.3054v-6.8415h-1.9899c-3.0535 0-3.0256-1.0374 0.10203-3.7901 4.6445-4.0878 4.9041-3.6747 5.12 8.1473 0.17543 9.6016 0.10715 10.254-1.0713 10.254-0.69221 0-1.4616-0.20879-1.7096-0.46383zm13.081-7.1483c0-7.0425-0.5319-8.5656-2.4265-6.9488-0.8075 0.68911-1.1804 0.68942-1.8311 1e-3 -0.64316-0.67994-0.18643-1.4438 2.1456-3.5884 1.6295-1.4985 3.3657-2.7246 3.8583-2.7246 1.0312 0 1.4279 5.3043 1.0796 14.437-0.19537 5.1252-0.35845 5.7399-1.5224 5.7399-1.1996 0-1.3035-0.55174-1.3035-6.9164zm14.886-0.38895c0-4.0179-0.17236-7.3054-0.38277-7.3054-0.21047 0-0.97626 0.32659-1.7016 0.72577-1.0298 0.56673-1.4103 0.48048-1.7366-0.39373-0.57757-1.5477 3.6978-6.017 5.5016-5.7512 1.2846 0.18934 1.3751 0.77955 1.5519 10.115l0.1877 9.9144h-3.4203zm-51.931-21.681c-1.2128-0.50322-1.0448-3.4863 0.22453-3.9872 1.3829-0.54564 6.9672-0.54354 9.6279 3e-3 2.3166 0.4764 3.2535 2.043 2.0865 3.4889-0.7583 0.93953-9.9489 1.3203-11.939 0.49465zm19.453-8.584c0-7.1896-0.20331-7.6393-2.8049-6.2075-2.443 1.3444-1.2086-2.1048 1.5824-4.4212 4.1768-3.4667 4.6057-2.7058 4.6057 8.1718v9.4144h-3.3831zm16.239-0.18355c0-3.9808-0.18515-7.4281-0.41127-7.6606-0.22606-0.23246-0.97978-0.0579-1.6747 0.38842-0.96352 0.61874-1.4521 0.61727-2.0584-5e-3 -0.60893-0.62614-0.23272-1.3956 1.607-3.2874 4.9612-5.1014 6.2292-2.8329 5.6196 10.054-0.31478 6.6542-0.46755 7.3252-1.7139 7.5277-1.2996 0.21116-1.3684-0.14147-1.3684-7.0154zm13.209 5.5917c-1.4809-1.3098-2.0255-2.5385-2.3782-5.3656-0.59857-4.7977 0.299-10.405 1.9347-12.087 1.9847-2.0409 6.5946-1.7597 8.8297 0.53851 1.6327 1.6788 1.7478 2.2302 1.7478 8.3717 0 7.6258-0.90017 9.2327-5.5298 9.8712-2.1853 0.30141-3.0401 0.0547-4.6043-1.3287zm6.2773-2.7643c1.2691-1.3049 1.0706-11.323-0.25139-12.682-1.4255-1.4658-2.7206-1.377-4.3497 0.29817-1.7354 1.7844-1.928 9.2828-0.29992 11.673 1.1459 1.6822 3.6091 2.0398 4.901 0.71139zm-87.444-5.3543c-0.64946-1.0805 2.0074-3.8253 3.2342-3.3412 1.6608 0.65532 1.3585 2.238-0.60307 3.157-2.0708 0.97019-2.1551 0.97608-2.6311 0.18408zm68.634-27.902c0-7.8536-0.19027-8.3422-2.7099-6.9556-0.87076 0.47919-1.4103 0.46036-1.7231-0.0602-0.67733-1.1269 3.7615-5.5077 5.5807-5.5077 1.5526 0 1.5588 0.0389 1.5588 9.666 0 8.1724-0.16546 9.7313-1.0703 10.088-0.58864 0.23219-1.1976 0.42231-1.3532 0.42231-0.15574 0-0.28299-3.444-0.28299-7.6532zm-20.376 5.6415c-1.3567-1.1296-1.618-2.0794-1.8453-6.707-0.33345-6.7902 0.57259-10.053 3.2416-11.674 1.7058-1.0361 2.4762-1.1147 4.752-0.48453 3.6761 1.0178 4.755 3.3081 4.755 10.094 0 5.5153-1.0663 8.8635-3.0751 9.6562-2.2208 0.87629-6.2623 0.42003-7.8282-0.88381zm6.8198-2.8128c1.0281-1.9754 0.87908-10.661-0.20919-12.191-1.3756-1.9344-4.1797-0.94232-5.1123 1.8086-1.0748 3.1704-0.91662 8.3824 0.30907 10.182 1.305 1.9158 4.0623 2.0262 5.0125 0.20064zm26.18 3.3408c-3.9777-2.3775-4.1652-14.283-0.28346-18.002 2.0791-1.9918 6.2047-1.8625 8.2679 0.25901 3.01 3.0951 3.1456 13.751 0.21584 16.957-1.5809 1.7303-5.9234 2.1462-8.2003 0.7853zm5.9455-3.5413c1.2837-1.8845 1.4594-10.281 0.24141-11.534-1.2866-1.323-4.46-1.0144-5.2539 0.51085-1.1335 2.1778-0.87989 10.198 0.36284 11.476 1.501 1.5435 3.4169 1.3568 4.6497-0.45298zm-74.729-5.0422c-0.93036-0.53528-4.0367-1.6741-6.903-2.5306-4.6529-1.3905-5.632-2.0008-9.1344-5.694l-3.9229-4.1366 4.0597 0.36315c7.3634 0.65863 13.994 3.7339 16.153 7.4918 1.4768 2.5706 2.5159 5.5336 1.9303 5.5042-0.2699-0.0132-1.2519-0.46263-2.1823-0.99788z" fill="#d40000" stroke-width="2.5932"/></svg>
